<svg width="24" height="24" viewBox="0 0 24 24" fill="none" xmlns="http://www.w3.org/2000/svg">
<path fill-rule="evenodd" clip-rule="evenodd" d="M11.5932 2.68441C11.7076 2.58957 11.8515 2.53766 12 2.53766C12.1486 2.53766 12.2925 2.58957 12.4068 2.68441C14.804 4.6784 17.7858 5.83652 20.9004 5.98321C21.0408 5.98753 21.1752 6.04093 21.2802 6.13412C21.3852 6.22731 21.4542 6.35438 21.4752 6.49321C21.558 7.11721 21.6 7.75321 21.6 8.40121C21.6 14.5956 17.688 19.8768 12.1992 21.9084C12.0707 21.9558 11.9294 21.9558 11.8008 21.9084C6.31202 19.8768 2.40002 14.5956 2.40002 8.40001C2.40002 7.75441 2.44202 7.11721 2.52482 6.49321C2.54586 6.35418 2.61505 6.22696 2.72033 6.13375C2.8256 6.04053 2.96027 5.98725 3.10082 5.98321C6.21515 5.83592 9.19657 4.67859 11.5932 2.68441ZM16.6284 9.82921C16.7688 9.63603 16.8266 9.395 16.7893 9.15916C16.7519 8.92331 16.6224 8.71197 16.4292 8.57161C16.236 8.43126 15.995 8.3734 15.7592 8.41076C15.5233 8.44811 15.312 8.57763 15.1716 8.77081L10.992 14.5188L8.73602 12.2628C8.65296 12.1769 8.55362 12.1084 8.44379 12.0613C8.33397 12.0141 8.21586 11.9894 8.09636 11.9884C7.97686 11.9874 7.85836 12.0102 7.74777 12.0555C7.63719 12.1008 7.53673 12.1677 7.45227 12.2523C7.3678 12.3368 7.30102 12.4373 7.25582 12.548C7.21062 12.6586 7.18791 12.7771 7.189 12.8966C7.1901 13.0161 7.21498 13.1342 7.2622 13.244C7.30942 13.3538 7.37803 13.453 7.46402 13.536L10.464 16.536C10.556 16.628 10.6668 16.699 10.7888 16.7441C10.9108 16.7891 11.0412 16.8072 11.1708 16.7971C11.3005 16.7869 11.4265 16.7488 11.54 16.6853C11.6535 16.6218 11.7519 16.5344 11.8284 16.4292L16.6284 9.82921Z" fill="white"/>
</svg>
