<svg width="14" height="13" viewBox="0 0 14 13" fill="none" xmlns="http://www.w3.org/2000/svg">
<path d="M7.5625 1.0625V1.32031V1.0625V1.32031C7.71875 1.33594 7.85938 1.36719 7.98438 1.41406C8.3125 1.52344 8.44531 1.75 8.38281 2.09375C8.27344 2.42188 8.04688 2.55469 7.70312 2.49219C7.4375 2.41406 7.20312 2.375 7 2.375C6.8125 2.375 6.65625 2.41406 6.53125 2.49219C6.48438 2.52344 6.46094 2.54688 6.46094 2.5625C6.44531 2.5625 6.4375 2.57812 6.4375 2.60938C6.4375 2.625 6.4375 2.63281 6.4375 2.63281C6.4375 2.64844 6.46094 2.67188 6.50781 2.70312C6.64844 2.76562 6.86719 2.84375 7.16406 2.9375H7.1875C7.46875 3 7.75781 3.11719 8.05469 3.28906C8.42969 3.49219 8.64062 3.84375 8.6875 4.34375C8.65625 4.875 8.44531 5.25781 8.05469 5.49219C7.89844 5.58594 7.73438 5.64844 7.5625 5.67969V5.9375C7.53125 6.28125 7.34375 6.46875 7 6.5C6.65625 6.46875 6.46875 6.28125 6.4375 5.9375V5.67969C6.21875 5.61719 6.03125 5.55469 5.875 5.49219C5.85938 5.49219 5.84375 5.49219 5.82812 5.49219C5.8125 5.47656 5.79688 5.46875 5.78125 5.46875C5.75 5.45312 5.71875 5.44531 5.6875 5.44531C5.375 5.30469 5.25781 5.0625 5.33594 4.71875C5.47656 4.40625 5.71094 4.28906 6.03906 4.36719C6.07031 4.38281 6.10156 4.39062 6.13281 4.39062C6.16406 4.40625 6.19531 4.42188 6.22656 4.4375C6.52344 4.54688 6.78906 4.60938 7.02344 4.625C7.21094 4.625 7.35938 4.59375 7.46875 4.53125C7.51562 4.5 7.53906 4.47656 7.53906 4.46094C7.55469 4.44531 7.5625 4.41406 7.5625 4.36719C7.57812 4.35156 7.54688 4.3125 7.46875 4.25C7.34375 4.17188 7.13281 4.09375 6.83594 4.01562L6.78906 3.99219C6.50781 3.92969 6.21875 3.82031 5.92188 3.66406C5.5625 3.47656 5.35938 3.13281 5.3125 2.63281C5.35938 2.08594 5.57812 1.71094 5.96875 1.50781C6.10938 1.42969 6.26562 1.36719 6.4375 1.32031V1.0625C6.46875 0.71875 6.65625 0.53125 7 0.5C7.34375 0.53125 7.53125 0.71875 7.5625 1.0625ZM13.5625 8.375C13.7188 8.59375 13.7812 8.82812 13.75 9.07812C13.7031 9.32812 13.5781 9.53125 13.375 9.6875L10.3984 11.8906C9.83594 12.2969 9.20312 12.5 8.5 12.5H4.75H1C0.78125 12.5 0.601562 12.4297 0.460938 12.2891C0.320312 12.1484 0.25 11.9688 0.25 11.75V10.25C0.25 10.0312 0.320312 9.85156 0.460938 9.71094C0.601562 9.57031 0.78125 9.5 1 9.5H1.86719L2.92188 8.65625C3.46875 8.21875 4.09375 8 4.79688 8H6.625H8.5C8.71875 8 8.89844 8.07031 9.03906 8.21094C9.17969 8.35156 9.25 8.53125 9.25 8.75C9.25 8.96875 9.17969 9.14844 9.03906 9.28906C8.89844 9.42969 8.71875 9.5 8.5 9.5H7H6.625C6.39062 9.51562 6.26562 9.64062 6.25 9.875C6.26562 10.1094 6.39062 10.2344 6.625 10.25H9.46094L12.25 8.1875C12.4688 8.03125 12.7031 7.96875 12.9531 8C13.2031 8.04688 13.4062 8.17188 13.5625 8.375ZM4.79688 9.5H4.77344C4.77344 9.5 4.78125 9.5 4.79688 9.5Z" fill="white"/>
</svg>
